<?xml version="1.0" standalone="no"?><!DOCTYPE svg PUBLIC "-//W3C//DTD SVG 1.1//EN" "http://www.w3.org/Graphics/SVG/1.1/DTD/svg11.dtd"><svg t="1503207543088" class="icon" style="" viewBox="0 0 1024 1024" version="1.1" xmlns="http://www.w3.org/2000/svg" p-id="2918" xmlns:xlink="http://www.w3.org/1999/xlink" width="20" height="20"><defs><style type="text/css"></style></defs><path d="M512 32c-263.598 0-477.285 214.897-477.285 480s213.688 480 477.285 480c263.598 0 477.285-214.897 477.285-480 0-265.103-213.688-480-477.285-480zM290.42 288.302l142.678 2.536c0 0 4.053 28.215 19.927 63.449s30.994 50.264 30.994 50.264l-41.852 39.943c0 0 14.783 41.373 59.721 89.7 44.937 48.327 92.265 63.986 92.265 63.986l25.267-51.875c0 0 15.149 19.013 56.111 33.38 40.962 14.368 58.050 6.951 58.050 6.951l-1.163 149.063c-105.16 0.413-226.826-54.415-309.668-139.695-81.093-92.674-130.117-185.927-132.327-307.7z" p-id="2919" fill="#f45a6f"></path></svg>