<?xml version="1.0" standalone="no"?><!DOCTYPE svg PUBLIC "-//W3C//DTD SVG 1.1//EN" "http://www.w3.org/Graphics/SVG/1.1/DTD/svg11.dtd"><svg t="1502163103322" class="icon" style="" viewBox="0 0 1024 1024" version="1.1" xmlns="http://www.w3.org/2000/svg" p-id="2760" xmlns:xlink="http://www.w3.org/1999/xlink" width="32" height="32"><defs><style type="text/css"></style></defs><path d="M462.4 27.52c-93.6 9.76-180.64 44.96-257.6 104.32-20.48 15.84-62.24 57.12-78.56 77.76-54.08 68.16-87.2 143.2-100.96 228.8-3.2 20.64-3.68 28.64-3.68 72 0 55.52 2.08 74.4 13.6 119.52 50.24 196.96 222.72 342.72 430.24 363.68 21.28 2.08 78.24 2.08 99.52 0 172.96-17.44 323.04-121.12 397.44-274.4 11.2-23.36 25.44-59.36 24.32-62.24-0.48-0.96-106.72-34.56-236.16-74.56-129.44-40-235.36-73.12-235.36-73.6 0-0.48 102.4-30.4 227.68-66.4 125.12-36 232-66.72 237.44-68.32l9.92-3.04-5.76-16.32c-64-181.76-225.76-308-419.52-327.52-19.52-1.92-83.04-1.76-102.56 0.32zm153.76 149.44c30.56 8.96 50.56 39.84 44.96 69.76-4 21.12-16.64 37.76-35.52 46.72-9.6 4.64-11.68 4.96-28 4.96-15.68 0-18.56-0.48-26.72-4.32-12.8-5.92-24.32-17.12-30.56-29.92-4.8-9.76-5.12-11.52-5.12-27.36 0-15.04 0.48-17.76 4.48-25.76 13.92-28.48 46.24-42.88 76.48-34.08z" p-id="2761" fill="#f45a6f"></path></svg>